<mxfile host="app.diagrams.net" modified="2023-11-11T21:48:19.542Z" agent="Mozilla/5.0 (Macintosh; Intel Mac OS X 10.15; rv:120.0) Gecko/20100101 Firefox/120.0" etag="0dHsYXB-6ftyd-7DwtC5" version="22.1.0" type="device">
  <diagram name="Page-1" id="s_jBtC45NuQfKOw1juAa">
    <mxGraphModel dx="993" dy="646" grid="1" gridSize="10" guides="1" tooltips="1" connect="1" arrows="1" fold="1" page="1" pageScale="1" pageWidth="827" pageHeight="1169" math="0" shadow="0">
      <root>
        <mxCell id="0" />
        <mxCell id="1" parent="0" />
        <mxCell id="A2wEe01pPnoJ4YUpfsXG-48" value="AWS Cloud" style="points=[[0,0],[0.25,0],[0.5,0],[0.75,0],[1,0],[1,0.25],[1,0.5],[1,0.75],[1,1],[0.75,1],[0.5,1],[0.25,1],[0,1],[0,0.75],[0,0.5],[0,0.25]];outlineConnect=0;gradientColor=none;html=1;whiteSpace=wrap;fontSize=12;fontStyle=0;container=1;pointerEvents=0;collapsible=0;recursiveResize=0;shape=mxgraph.aws4.group;grIcon=mxgraph.aws4.group_aws_cloud_alt;strokeColor=#232F3E;fillColor=none;verticalAlign=top;align=left;spacingLeft=30;fontColor=#232F3E;dashed=0;" vertex="1" parent="1">
          <mxGeometry x="260" y="290" width="590" height="610" as="geometry" />
        </mxCell>
        <mxCell id="A2wEe01pPnoJ4YUpfsXG-63" value="crop endpoint" style="sketch=0;points=[[0,0,0],[0.25,0,0],[0.5,0,0],[0.75,0,0],[1,0,0],[0,1,0],[0.25,1,0],[0.5,1,0],[0.75,1,0],[1,1,0],[0,0.25,0],[0,0.5,0],[0,0.75,0],[1,0.25,0],[1,0.5,0],[1,0.75,0]];outlineConnect=0;fontColor=#232F3E;fillColor=#ED7100;strokeColor=#ffffff;dashed=0;verticalLabelPosition=bottom;verticalAlign=top;align=center;html=1;fontSize=12;fontStyle=0;aspect=fixed;shape=mxgraph.aws4.resourceIcon;resIcon=mxgraph.aws4.lambda;" vertex="1" parent="A2wEe01pPnoJ4YUpfsXG-48">
          <mxGeometry x="90" y="256" width="78" height="78" as="geometry" />
        </mxCell>
        <mxCell id="A2wEe01pPnoJ4YUpfsXG-64" value="" style="edgeStyle=orthogonalEdgeStyle;html=1;endArrow=open;elbow=vertical;startArrow=none;endFill=0;strokeColor=#545B64;rounded=0;exitX=1;exitY=0.5;exitDx=0;exitDy=0;exitPerimeter=0;entryX=0;entryY=0.5;entryDx=0;entryDy=0;entryPerimeter=0;" edge="1" parent="A2wEe01pPnoJ4YUpfsXG-48" source="A2wEe01pPnoJ4YUpfsXG-63" target="A2wEe01pPnoJ4YUpfsXG-75">
          <mxGeometry width="100" relative="1" as="geometry">
            <mxPoint x="90" y="430" as="sourcePoint" />
            <mxPoint x="190" y="430" as="targetPoint" />
            <Array as="points">
              <mxPoint x="240" y="295" />
            </Array>
          </mxGeometry>
        </mxCell>
        <mxCell id="A2wEe01pPnoJ4YUpfsXG-65" value="Copy initial image&lt;br&gt;and store cropped&lt;br&gt;version" style="edgeLabel;html=1;align=center;verticalAlign=middle;resizable=0;points=[];" vertex="1" connectable="0" parent="A2wEe01pPnoJ4YUpfsXG-64">
          <mxGeometry x="0.0065" y="-2" relative="1" as="geometry">
            <mxPoint x="-19" y="-2" as="offset" />
          </mxGeometry>
        </mxCell>
        <mxCell id="A2wEe01pPnoJ4YUpfsXG-75" value="inputs" style="sketch=0;points=[[0,0,0],[0.25,0,0],[0.5,0,0],[0.75,0,0],[1,0,0],[0,1,0],[0.25,1,0],[0.5,1,0],[0.75,1,0],[1,1,0],[0,0.25,0],[0,0.5,0],[0,0.75,0],[1,0.25,0],[1,0.5,0],[1,0.75,0]];outlineConnect=0;fontColor=#232F3E;fillColor=#7AA116;strokeColor=#ffffff;dashed=0;verticalLabelPosition=bottom;verticalAlign=top;align=center;html=1;fontSize=12;fontStyle=0;aspect=fixed;shape=mxgraph.aws4.resourceIcon;resIcon=mxgraph.aws4.s3;" vertex="1" parent="A2wEe01pPnoJ4YUpfsXG-48">
          <mxGeometry x="350" y="256" width="78" height="78" as="geometry" />
        </mxCell>
        <mxCell id="A2wEe01pPnoJ4YUpfsXG-76" value="upload endpoint" style="sketch=0;points=[[0,0,0],[0.25,0,0],[0.5,0,0],[0.75,0,0],[1,0,0],[0,1,0],[0.25,1,0],[0.5,1,0],[0.75,1,0],[1,1,0],[0,0.25,0],[0,0.5,0],[0,0.75,0],[1,0.25,0],[1,0.5,0],[1,0.75,0]];outlineConnect=0;fontColor=#232F3E;fillColor=#ED7100;strokeColor=#ffffff;dashed=0;verticalLabelPosition=bottom;verticalAlign=top;align=center;html=1;fontSize=12;fontStyle=0;aspect=fixed;shape=mxgraph.aws4.resourceIcon;resIcon=mxgraph.aws4.lambda;" vertex="1" parent="A2wEe01pPnoJ4YUpfsXG-48">
          <mxGeometry x="90" y="40" width="78" height="78" as="geometry" />
        </mxCell>
        <mxCell id="A2wEe01pPnoJ4YUpfsXG-72" value="processed" style="sketch=0;points=[[0,0,0],[0.25,0,0],[0.5,0,0],[0.75,0,0],[1,0,0],[0,1,0],[0.25,1,0],[0.5,1,0],[0.75,1,0],[1,1,0],[0,0.25,0],[0,0.5,0],[0,0.75,0],[1,0.25,0],[1,0.5,0],[1,0.75,0]];outlineConnect=0;fontColor=#232F3E;fillColor=#7AA116;strokeColor=#ffffff;dashed=0;verticalLabelPosition=bottom;verticalAlign=top;align=center;html=1;fontSize=12;fontStyle=0;aspect=fixed;shape=mxgraph.aws4.resourceIcon;resIcon=mxgraph.aws4.s3;" vertex="1" parent="A2wEe01pPnoJ4YUpfsXG-48">
          <mxGeometry x="350" y="370" width="78" height="78" as="geometry" />
        </mxCell>
        <mxCell id="A2wEe01pPnoJ4YUpfsXG-89" value="" style="edgeStyle=orthogonalEdgeStyle;html=1;endArrow=open;elbow=vertical;startArrow=none;endFill=0;strokeColor=#545B64;rounded=0;exitX=0;exitY=0.75;exitDx=0;exitDy=0;exitPerimeter=0;entryX=0;entryY=0.5;entryDx=0;entryDy=0;entryPerimeter=0;" edge="1" parent="A2wEe01pPnoJ4YUpfsXG-48" source="A2wEe01pPnoJ4YUpfsXG-75" target="A2wEe01pPnoJ4YUpfsXG-72">
          <mxGeometry width="100" relative="1" as="geometry">
            <mxPoint x="360" y="620" as="sourcePoint" />
            <mxPoint x="460" y="620" as="targetPoint" />
            <Array as="points">
              <mxPoint x="310" y="315" />
              <mxPoint x="310" y="409" />
            </Array>
          </mxGeometry>
        </mxCell>
        <mxCell id="A2wEe01pPnoJ4YUpfsXG-90" value="Lifecycle rule to delete images after 24 hours" style="rounded=0;whiteSpace=wrap;html=1;" vertex="1" parent="A2wEe01pPnoJ4YUpfsXG-48">
          <mxGeometry x="447" y="170" width="120" height="60" as="geometry" />
        </mxCell>
        <mxCell id="A2wEe01pPnoJ4YUpfsXG-91" value="" style="endArrow=none;html=1;rounded=0;exitX=1;exitY=0;exitDx=0;exitDy=0;exitPerimeter=0;entryX=0;entryY=1;entryDx=0;entryDy=0;" edge="1" parent="A2wEe01pPnoJ4YUpfsXG-48" source="A2wEe01pPnoJ4YUpfsXG-75" target="A2wEe01pPnoJ4YUpfsXG-90">
          <mxGeometry width="50" height="50" relative="1" as="geometry">
            <mxPoint x="330" y="180" as="sourcePoint" />
            <mxPoint x="380" y="130" as="targetPoint" />
          </mxGeometry>
        </mxCell>
        <mxCell id="A2wEe01pPnoJ4YUpfsXG-93" value="2" style="ellipse;whiteSpace=wrap;html=1;aspect=fixed;fillColor=#4D4D4D;strokeWidth=3;fontColor=#FFFFFF;fontSize=26;" vertex="1" parent="A2wEe01pPnoJ4YUpfsXG-48">
          <mxGeometry x="190" y="130" width="40" height="40" as="geometry" />
        </mxCell>
        <mxCell id="A2wEe01pPnoJ4YUpfsXG-49" value="" style="sketch=0;outlineConnect=0;fontColor=#232F3E;gradientColor=none;fillColor=#232F3D;strokeColor=none;dashed=0;verticalLabelPosition=bottom;verticalAlign=top;align=center;html=1;fontSize=12;fontStyle=0;aspect=fixed;pointerEvents=1;shape=mxgraph.aws4.user;" vertex="1" parent="1">
          <mxGeometry x="60" y="330" width="78" height="78" as="geometry" />
        </mxCell>
        <mxCell id="A2wEe01pPnoJ4YUpfsXG-52" value="" style="edgeStyle=orthogonalEdgeStyle;html=1;endArrow=open;elbow=vertical;startArrow=none;endFill=0;strokeColor=#545B64;rounded=0;entryX=0;entryY=0.5;entryDx=0;entryDy=0;entryPerimeter=0;" edge="1" parent="1" source="A2wEe01pPnoJ4YUpfsXG-49" target="A2wEe01pPnoJ4YUpfsXG-76">
          <mxGeometry width="100" relative="1" as="geometry">
            <mxPoint x="150" y="380" as="sourcePoint" />
            <mxPoint x="190" y="320" as="targetPoint" />
          </mxGeometry>
        </mxCell>
        <mxCell id="A2wEe01pPnoJ4YUpfsXG-53" value="Get upload URL" style="edgeLabel;html=1;align=center;verticalAlign=middle;resizable=0;points=[];" vertex="1" connectable="0" parent="A2wEe01pPnoJ4YUpfsXG-52">
          <mxGeometry x="-0.0856" y="-4" relative="1" as="geometry">
            <mxPoint x="-33" y="-4" as="offset" />
          </mxGeometry>
        </mxCell>
        <mxCell id="A2wEe01pPnoJ4YUpfsXG-56" value="" style="sketch=0;outlineConnect=0;fontColor=#232F3E;gradientColor=none;fillColor=#232F3D;strokeColor=none;dashed=0;verticalLabelPosition=bottom;verticalAlign=top;align=center;html=1;fontSize=12;fontStyle=0;aspect=fixed;pointerEvents=1;shape=mxgraph.aws4.user;" vertex="1" parent="1">
          <mxGeometry x="60" y="440" width="78" height="78" as="geometry" />
        </mxCell>
        <mxCell id="A2wEe01pPnoJ4YUpfsXG-57" value="" style="edgeStyle=orthogonalEdgeStyle;html=1;endArrow=open;elbow=vertical;startArrow=none;endFill=0;strokeColor=#545B64;rounded=0;entryX=0;entryY=0.25;entryDx=0;entryDy=0;entryPerimeter=0;" edge="1" parent="1" source="A2wEe01pPnoJ4YUpfsXG-56" target="A2wEe01pPnoJ4YUpfsXG-75">
          <mxGeometry width="100" relative="1" as="geometry">
            <mxPoint x="150" y="490" as="sourcePoint" />
            <mxPoint x="350" y="479" as="targetPoint" />
            <Array as="points">
              <mxPoint x="570" y="479" />
              <mxPoint x="570" y="566" />
            </Array>
          </mxGeometry>
        </mxCell>
        <mxCell id="A2wEe01pPnoJ4YUpfsXG-58" value="Upload to &lt;br&gt;inputs bucket" style="edgeLabel;html=1;align=center;verticalAlign=middle;resizable=0;points=[];" vertex="1" connectable="0" parent="A2wEe01pPnoJ4YUpfsXG-57">
          <mxGeometry x="-0.0856" y="-4" relative="1" as="geometry">
            <mxPoint x="108" y="-4" as="offset" />
          </mxGeometry>
        </mxCell>
        <mxCell id="A2wEe01pPnoJ4YUpfsXG-60" value="" style="sketch=0;outlineConnect=0;fontColor=#232F3E;gradientColor=none;fillColor=#232F3D;strokeColor=none;dashed=0;verticalLabelPosition=bottom;verticalAlign=top;align=center;html=1;fontSize=12;fontStyle=0;aspect=fixed;pointerEvents=1;shape=mxgraph.aws4.user;" vertex="1" parent="1">
          <mxGeometry x="60" y="546" width="78" height="78" as="geometry" />
        </mxCell>
        <mxCell id="A2wEe01pPnoJ4YUpfsXG-61" value="" style="edgeStyle=orthogonalEdgeStyle;html=1;endArrow=open;elbow=vertical;startArrow=none;endFill=0;strokeColor=#545B64;rounded=0;entryX=0;entryY=0.5;entryDx=0;entryDy=0;entryPerimeter=0;" edge="1" parent="1" source="A2wEe01pPnoJ4YUpfsXG-60" target="A2wEe01pPnoJ4YUpfsXG-63">
          <mxGeometry width="100" relative="1" as="geometry">
            <mxPoint x="150" y="596" as="sourcePoint" />
            <mxPoint x="250" y="680" as="targetPoint" />
          </mxGeometry>
        </mxCell>
        <mxCell id="A2wEe01pPnoJ4YUpfsXG-62" value="Crop input &lt;br&gt;image (optional)" style="edgeLabel;html=1;align=center;verticalAlign=middle;resizable=0;points=[];" vertex="1" connectable="0" parent="A2wEe01pPnoJ4YUpfsXG-61">
          <mxGeometry x="-0.0856" y="-4" relative="1" as="geometry">
            <mxPoint x="-33" y="-4" as="offset" />
          </mxGeometry>
        </mxCell>
        <mxCell id="A2wEe01pPnoJ4YUpfsXG-66" value="save endpoint" style="sketch=0;points=[[0,0,0],[0.25,0,0],[0.5,0,0],[0.75,0,0],[1,0,0],[0,1,0],[0.25,1,0],[0.5,1,0],[0.75,1,0],[1,1,0],[0,0.25,0],[0,0.5,0],[0,0.75,0],[1,0.25,0],[1,0.5,0],[1,0.75,0]];outlineConnect=0;fontColor=#232F3E;fillColor=#ED7100;strokeColor=#ffffff;dashed=0;verticalLabelPosition=bottom;verticalAlign=top;align=center;html=1;fontSize=12;fontStyle=0;aspect=fixed;shape=mxgraph.aws4.resourceIcon;resIcon=mxgraph.aws4.lambda;" vertex="1" parent="1">
          <mxGeometry x="350" y="660" width="78" height="78" as="geometry" />
        </mxCell>
        <mxCell id="A2wEe01pPnoJ4YUpfsXG-67" value="" style="sketch=0;outlineConnect=0;fontColor=#232F3E;gradientColor=none;fillColor=#232F3D;strokeColor=none;dashed=0;verticalLabelPosition=bottom;verticalAlign=top;align=center;html=1;fontSize=12;fontStyle=0;aspect=fixed;pointerEvents=1;shape=mxgraph.aws4.user;" vertex="1" parent="1">
          <mxGeometry x="60" y="660" width="78" height="78" as="geometry" />
        </mxCell>
        <mxCell id="A2wEe01pPnoJ4YUpfsXG-68" value="" style="edgeStyle=orthogonalEdgeStyle;html=1;endArrow=open;elbow=vertical;startArrow=none;endFill=0;strokeColor=#545B64;rounded=0;entryX=0;entryY=0.5;entryDx=0;entryDy=0;entryPerimeter=0;" edge="1" parent="1" source="A2wEe01pPnoJ4YUpfsXG-67" target="A2wEe01pPnoJ4YUpfsXG-66">
          <mxGeometry width="100" relative="1" as="geometry">
            <mxPoint x="150" y="710" as="sourcePoint" />
            <mxPoint x="250" y="794" as="targetPoint" />
          </mxGeometry>
        </mxCell>
        <mxCell id="A2wEe01pPnoJ4YUpfsXG-69" value="Save/confirm&lt;br&gt;image" style="edgeLabel;html=1;align=center;verticalAlign=middle;resizable=0;points=[];" vertex="1" connectable="0" parent="A2wEe01pPnoJ4YUpfsXG-68">
          <mxGeometry x="-0.0856" y="-4" relative="1" as="geometry">
            <mxPoint x="-33" y="-4" as="offset" />
          </mxGeometry>
        </mxCell>
        <mxCell id="A2wEe01pPnoJ4YUpfsXG-78" value="" style="edgeStyle=orthogonalEdgeStyle;html=1;endArrow=open;elbow=vertical;startArrow=none;endFill=0;strokeColor=#545B64;rounded=0;exitX=1;exitY=0.5;exitDx=0;exitDy=0;exitPerimeter=0;entryX=0;entryY=0.5;entryDx=0;entryDy=0;entryPerimeter=0;" edge="1" parent="1" source="A2wEe01pPnoJ4YUpfsXG-66" target="A2wEe01pPnoJ4YUpfsXG-72">
          <mxGeometry width="100" relative="1" as="geometry">
            <mxPoint x="270" y="800" as="sourcePoint" />
            <mxPoint x="560" y="699" as="targetPoint" />
          </mxGeometry>
        </mxCell>
        <mxCell id="A2wEe01pPnoJ4YUpfsXG-79" value="Copy final input &lt;br&gt;image to processed&lt;br&gt;bucket" style="edgeLabel;html=1;align=center;verticalAlign=middle;resizable=0;points=[];" vertex="1" connectable="0" parent="A2wEe01pPnoJ4YUpfsXG-78">
          <mxGeometry x="-0.2121" y="1" relative="1" as="geometry">
            <mxPoint x="11" y="1" as="offset" />
          </mxGeometry>
        </mxCell>
        <mxCell id="A2wEe01pPnoJ4YUpfsXG-81" value="view endpoint" style="sketch=0;points=[[0,0,0],[0.25,0,0],[0.5,0,0],[0.75,0,0],[1,0,0],[0,1,0],[0.25,1,0],[0.5,1,0],[0.75,1,0],[1,1,0],[0,0.25,0],[0,0.5,0],[0,0.75,0],[1,0.25,0],[1,0.5,0],[1,0.75,0]];outlineConnect=0;fontColor=#232F3E;fillColor=#ED7100;strokeColor=#ffffff;dashed=0;verticalLabelPosition=bottom;verticalAlign=top;align=center;html=1;fontSize=12;fontStyle=0;aspect=fixed;shape=mxgraph.aws4.resourceIcon;resIcon=mxgraph.aws4.lambda;" vertex="1" parent="1">
          <mxGeometry x="350" y="780" width="78" height="78" as="geometry" />
        </mxCell>
        <mxCell id="A2wEe01pPnoJ4YUpfsXG-82" value="" style="sketch=0;outlineConnect=0;fontColor=#232F3E;gradientColor=none;fillColor=#232F3D;strokeColor=none;dashed=0;verticalLabelPosition=bottom;verticalAlign=top;align=center;html=1;fontSize=12;fontStyle=0;aspect=fixed;pointerEvents=1;shape=mxgraph.aws4.user;" vertex="1" parent="1">
          <mxGeometry x="60" y="780" width="78" height="78" as="geometry" />
        </mxCell>
        <mxCell id="A2wEe01pPnoJ4YUpfsXG-83" value="" style="edgeStyle=orthogonalEdgeStyle;html=1;endArrow=open;elbow=vertical;startArrow=none;endFill=0;strokeColor=#545B64;rounded=0;entryX=0;entryY=0.5;entryDx=0;entryDy=0;entryPerimeter=0;" edge="1" parent="1" source="A2wEe01pPnoJ4YUpfsXG-82" target="A2wEe01pPnoJ4YUpfsXG-81">
          <mxGeometry width="100" relative="1" as="geometry">
            <mxPoint x="150" y="830" as="sourcePoint" />
            <mxPoint x="250" y="914" as="targetPoint" />
          </mxGeometry>
        </mxCell>
        <mxCell id="A2wEe01pPnoJ4YUpfsXG-84" value="View uploaded&lt;br&gt;image at X by Y &lt;br&gt;pixels" style="edgeLabel;html=1;align=center;verticalAlign=middle;resizable=0;points=[];" vertex="1" connectable="0" parent="A2wEe01pPnoJ4YUpfsXG-83">
          <mxGeometry x="-0.0856" y="-4" relative="1" as="geometry">
            <mxPoint x="-33" y="-4" as="offset" />
          </mxGeometry>
        </mxCell>
        <mxCell id="A2wEe01pPnoJ4YUpfsXG-87" value="" style="edgeStyle=orthogonalEdgeStyle;html=1;endArrow=none;elbow=vertical;startArrow=open;startFill=0;strokeColor=#545B64;rounded=0;entryX=0;entryY=0.75;entryDx=0;entryDy=0;entryPerimeter=0;exitX=1;exitY=0.5;exitDx=0;exitDy=0;exitPerimeter=0;" edge="1" parent="1" source="A2wEe01pPnoJ4YUpfsXG-81" target="A2wEe01pPnoJ4YUpfsXG-72">
          <mxGeometry width="100" relative="1" as="geometry">
            <mxPoint x="440" y="950" as="sourcePoint" />
            <mxPoint x="560" y="819" as="targetPoint" />
            <Array as="points">
              <mxPoint x="570" y="819" />
              <mxPoint x="570" y="718" />
            </Array>
          </mxGeometry>
        </mxCell>
        <mxCell id="A2wEe01pPnoJ4YUpfsXG-88" value="Check image at &lt;br&gt;given size exists, &lt;br&gt;if yes return&lt;br&gt;otherwise create&lt;br&gt;&amp;amp; return new image" style="edgeLabel;html=1;align=center;verticalAlign=middle;resizable=0;points=[];" vertex="1" connectable="0" parent="A2wEe01pPnoJ4YUpfsXG-87">
          <mxGeometry x="-0.0455" y="-2" relative="1" as="geometry">
            <mxPoint x="-53" y="-2" as="offset" />
          </mxGeometry>
        </mxCell>
        <mxCell id="A2wEe01pPnoJ4YUpfsXG-92" value="1" style="ellipse;whiteSpace=wrap;html=1;aspect=fixed;fillColor=#4D4D4D;strokeWidth=3;fontColor=#FFFFFF;fontSize=26;" vertex="1" parent="1">
          <mxGeometry x="150" y="310" width="40" height="40" as="geometry" />
        </mxCell>
        <mxCell id="A2wEe01pPnoJ4YUpfsXG-94" value="3" style="ellipse;whiteSpace=wrap;html=1;aspect=fixed;fillColor=#4D4D4D;strokeWidth=3;fontColor=#FFFFFF;fontSize=26;" vertex="1" parent="1">
          <mxGeometry x="160" y="520" width="40" height="40" as="geometry" />
        </mxCell>
        <mxCell id="A2wEe01pPnoJ4YUpfsXG-95" value="4" style="ellipse;whiteSpace=wrap;html=1;aspect=fixed;fillColor=#4D4D4D;strokeWidth=3;fontColor=#FFFFFF;fontSize=26;" vertex="1" parent="1">
          <mxGeometry x="160" y="630" width="40" height="40" as="geometry" />
        </mxCell>
        <mxCell id="A2wEe01pPnoJ4YUpfsXG-96" value="5" style="ellipse;whiteSpace=wrap;html=1;aspect=fixed;fillColor=#4D4D4D;strokeWidth=3;fontColor=#FFFFFF;fontSize=26;" vertex="1" parent="1">
          <mxGeometry x="160" y="750" width="40" height="40" as="geometry" />
        </mxCell>
      </root>
    </mxGraphModel>
  </diagram>
</mxfile>
